<svg xmlns="http://www.w3.org/2000/svg">
  <symbol id="home" viewBox="0 0 24 24">
    <path d="M3 11.5 12 4l9 7.5"/>
    <path d="M5.5 10.5V20h13v-9.5"/>
    <path d="M9.5 20v-6h5v6"/>
  </symbol>
  <symbol id="refresh" viewBox="0 0 24 24">
    <path d="M20 12a8 8 0 0 1-13.7 5.6"/>
    <path d="M4 12A8 8 0 0 1 17.7 6.4"/>
    <path d="M17.7 3.5v2.9h-2.9"/>
    <path d="M6.3 20.5v-2.9h2.9"/>
  </symbol>
  <symbol id="log-in" viewBox="0 0 24 24">
    <path d="M10 17l5-5-5-5"/>
    <path d="M15 12H3"/>
    <path d="M14 4h5v16h-5"/>
  </symbol>
  <symbol id="log-out" viewBox="0 0 24 24">
    <path d="M14 17l5-5-5-5"/>
    <path d="M19 12H8"/>
    <path d="M10 4H5v16h5"/>
  </symbol>
  <symbol id="user-plus" viewBox="0 0 24 24">
    <path d="M15 20a6 6 0 0 0-12 0"/>
    <circle cx="9" cy="7" r="4"/>
    <path d="M19 8v6"/>
    <path d="M16 11h6"/>
  </symbol>
  <symbol id="send" viewBox="0 0 24 24">
    <path d="M21 3 10 14"/>
    <path d="m21 3-7 18-4-7-7-4 18-7Z"/>
  </symbol>
  <symbol id="message" viewBox="0 0 24 24">
    <path d="M21 12a8 8 0 0 1-8 8H6l-3 3v-7a8 8 0 1 1 18-4Z"/>
  </symbol>
  <symbol id="trash" viewBox="0 0 24 24">
    <path d="M4 7h16"/>
    <path d="M10 11v6"/>
    <path d="M14 11v6"/>
    <path d="M6 7l1 14h10l1-14"/>
    <path d="M9 7V4h6v3"/>
  </symbol>
  <symbol id="copy" viewBox="0 0 24 24">
    <rect x="8" y="8" width="11" height="11" rx="2"/>
    <path d="M5 15H4a2 2 0 0 1-2-2V5a2 2 0 0 1 2-2h8a2 2 0 0 1 2 2v1"/>
  </symbol>
  <symbol id="x" viewBox="0 0 24 24">
    <path d="M6 6l12 12"/>
    <path d="M18 6 6 18"/>
  </symbol>
</svg>
